<svg width="551" height="484" viewBox="0 0 551 484" fill="none" xmlns="http://www.w3.org/2000/svg">
<path d="M182.125 269.56L152 211.061" stroke="#2F2E41" stroke-width="12" stroke-linecap="square"/>
<path d="M322.602 293.906L367.15 245.48" stroke="#2F2E41" stroke-width="12" stroke-linecap="square"/>
<path d="M211.476 116.449L347.499 142.968" stroke="#2F2E41" stroke-width="12" stroke-linecap="square"/>
<g filter="url(#filter0_d_236_1107)">
<path d="M4.00011 107.73C4.00011 110.16 4.08011 112.59 4.25011 115C4.43011 117.88 4.74011 120.74 5.16011 123.58C6.57161 133.142 9.26936 142.47 13.1801 151.31C13.3801 151.75 13.5801 152.19 13.7801 152.63L14.0801 153.29C14.1801 153.51 14.2901 153.73 14.3901 153.94C14.5301 154.23 14.6601 154.51 14.8001 154.79C14.9701 155.14 15.1401 155.49 15.3201 155.84C15.3401 155.88 15.3601 155.93 15.3901 155.98C15.5401 156.28 15.6801 156.57 15.8401 156.87C15.8695 156.935 15.9029 156.999 15.9401 157.06C16.1101 157.4 16.2901 157.75 16.4701 158.09C16.6701 158.45 16.8601 158.82 17.0601 159.18C17.5401 160.07 18.0401 160.95 18.5501 161.83C18.7001 162.09 18.8501 162.35 19.0101 162.61C19.1501 162.85 19.2901 163.09 19.4401 163.33C19.5401 163.49 19.6401 163.66 19.7401 163.82C19.9001 164.09 20.0601 164.35 20.2301 164.62C20.6001 165.21 20.9801 165.8 21.3501 166.39H21.3601C21.5301 166.66 21.7101 166.93 21.8901 167.19V167.2C22.4201 168 22.9701 168.8 23.5201 169.59L23.5239 169.591L23.5272 169.593L23.5294 169.596L23.5301 169.6C23.9701 170.24 24.4301 170.86 24.8801 171.48V171.49C25.1801 171.88 25.4701 172.28 25.7701 172.67C26.0101 172.99 26.2601 173.32 26.5101 173.64C26.5601 173.71 26.6201 173.77 26.6701 173.84V173.85C26.7401 173.94 26.8101 174.02 26.8801 174.11C27.9401 175.47 29.0334 176.8 30.1601 178.1L30.3401 178.31C30.4001 178.38 30.4701 178.45 30.5301 178.53C30.6301 178.64 30.7201 178.75 30.8201 178.86C30.9101 178.97 31.0101 179.08 31.1101 179.19C36.9832 185.806 43.6425 191.679 50.9401 196.68C51.9101 197.35 52.9001 198 53.8901 198.63C54.1401 198.79 54.3901 198.95 54.6401 199.1C54.7101 199.15 54.7901 199.2 54.8601 199.25C55.0001 199.33 55.1301 199.41 55.2701 199.5C55.4001 199.58 55.5301 199.66 55.6701 199.74C56.2001 200.07 56.7401 200.39 57.2801 200.71C57.4101 200.79 57.5501 200.87 57.6901 200.95C57.8201 201.02 57.9601 201.1 58.1001 201.18C58.1001 201.19 58.1001 201.19 58.1101 201.19H58.1201V201.2H58.1301C58.8001 201.59 59.4801 201.97 60.1701 202.34C60.5401 202.54 60.9201 202.75 61.3001 202.94C62.1601 203.41 63.0301 203.86 63.9001 204.29C64.2101 204.44 64.5301 204.59 64.8401 204.75C65.1001 204.87 65.3601 205 65.6201 205.12C65.7001 205.16 65.7701 205.19 65.8401 205.23C66.0601 205.33 66.2701 205.43 66.4901 205.53C66.7301 205.64 66.9701 205.75 67.2001 205.86C67.4701 205.98 67.7301 206.1 68.0001 206.21C69.0001 206.66 70.0101 207.09 71.0201 207.5C74.6397 208.984 78.3386 210.266 82.1001 211.34C82.2701 211.39 82.4501 211.44 82.6301 211.49C84.2401 211.94 85.8602 212.35 87.4902 212.72C90.3402 213.38 93.2168 213.92 96.1201 214.34H96.1402C96.4902 214.39 96.8302 214.44 97.1802 214.49C97.2102 214.49 97.2401 214.5 97.2801 214.5C97.2801 214.51 97.2801 214.51 97.2901 214.5C97.6701 214.55 98.0601 214.6 98.4401 214.65C98.4661 214.658 98.4931 214.661 98.5202 214.66C98.8802 214.71 99.2502 214.75 99.6102 214.79C100 214.83 100.39 214.87 100.78 214.91C101.08 214.94 101.38 214.97 101.68 215C101.706 215.009 101.733 215.012 101.76 215.01C102.03 215.03 102.3 215.06 102.57 215.08H102.61C102.84 215.1 103.08 215.12 103.31 215.14C106.1 215.36 108.9 215.46 111.74 215.46C114.81 215.46 117.86 215.34 120.87 215.08H120.9C121.55 215.02 122.19 214.96 122.83 214.9C123 214.88 123.16 214.87 123.33 214.85C123.36 214.85 123.4 214.84 123.43 214.84C123.48 214.83 123.53 214.83 123.59 214.82C123.617 214.821 123.644 214.818 123.67 214.81C123.89 214.79 124.11 214.76 124.34 214.74L125.09 214.65C125.34 214.62 125.59 214.58 125.84 214.55C125.9 214.54 125.95 214.54 126.01 214.53C126.19 214.51 126.37 214.48 126.55 214.45C126.64 214.44 126.73 214.43 126.81 214.42C126.99 214.39 127.16 214.37 127.34 214.34H127.35C132.838 213.55 138.254 212.329 143.55 210.69C143.83 210.6 144.11 210.52 144.39 210.43C144.4 210.43 144.41 210.42 144.42 210.42C144.5 210.39 144.59 210.37 144.67 210.34C145.42 210.1 146.16 209.85 146.9 209.59C147.92 209.25 148.93 208.88 149.94 208.5C150.21 208.39 150.48 208.29 150.75 208.18C151.3 207.97 151.84 207.75 152.38 207.53C153.3 207.16 154.22 206.77 155.13 206.37C155.98 205.99 156.82 205.61 157.66 205.21C157.68 205.2 157.71 205.2 157.73 205.18C157.92 205.09 158.11 205 158.29 204.91H158.3C162.905 202.7 167.347 200.163 171.59 197.32C172.95 196.41 174.29 195.47 175.61 194.5C176.67 193.71 177.71 192.91 178.75 192.09C183.881 188.009 188.63 183.47 192.94 178.53V178.52C193.25 178.18 193.54 177.83 193.84 177.48C193.89 177.43 193.93 177.38 193.97 177.34C194.16 177.11 194.34 176.89 194.53 176.67V176.66C194.78 176.37 195.03 176.07 195.27 175.77C195.33 175.7 195.38 175.64 195.43 175.58V175.57C195.63 175.33 195.82 175.09 196.02 174.84C196.12 174.72 196.21 174.6 196.31 174.48V174.47C196.9 173.73 197.47 172.99 198.04 172.23C198.19 172.03 198.34 171.82 198.5 171.61C199.22 170.64 199.92 169.65 200.6 168.66V168.65C200.86 168.28 201.11 167.9 201.37 167.53C201.62 167.15 201.87 166.77 202.12 166.39C202.37 165.99 202.63 165.6 202.88 165.2L202.91 165.14C203.16 164.76 203.41 164.36 203.65 163.97C203.84 163.65 204.03 163.34 204.22 163.03C204.34 162.82 204.47 162.61 204.59 162.39C204.637 162.322 204.68 162.252 204.72 162.18C205 161.69 205.28 161.2 205.56 160.71C205.89 160.14 206.21 159.56 206.53 158.98C206.65 158.74 206.78 158.5 206.91 158.26C206.96 158.18 207 158.1 207.04 158.02C207.19 157.74 207.34 157.45 207.48 157.16C207.63 156.88 207.78 156.59 207.93 156.3C208.07 156.02 208.22 155.73 208.36 155.44C208.47 155.22 208.57 155 208.68 154.78C208.688 154.762 208.698 154.745 208.71 154.73C208.76 154.62 208.81 154.52 208.85 154.42C208.862 154.405 208.872 154.388 208.88 154.37C208.99 154.15 209.09 153.92 209.2 153.7C209.34 153.41 209.47 153.11 209.61 152.82C209.7 152.62 209.8 152.41 209.89 152.2C210.02 151.91 210.16 151.62 210.28 151.32C210.42 151.02 210.55 150.72 210.68 150.41C210.718 150.335 210.751 150.258 210.78 150.18C210.85 150.04 210.9 149.9 210.96 149.76C211.12 149.39 211.28 149.01 211.43 148.64C211.61 148.22 211.78 147.79 211.94 147.37C212.1 146.98 212.25 146.58 212.4 146.18L212.46 146.04C214.79 139.903 216.557 133.567 217.74 127.11V127.1C218.407 123.414 218.884 119.695 219.17 115.96C219.18 115.75 219.2 115.55 219.21 115.35C219.39 112.82 219.47 110.28 219.47 107.73C219.47 106.6 219.45 105.48 219.42 104.36C218.722 80.9363 210.369 58.3863 195.64 40.16C195.32 39.76 195 39.3599 194.67 38.9599C194.34 38.5599 194 38.1699 193.67 37.7799C182.708 24.9421 168.882 14.8597 153.308 8.34541C137.734 1.83116 120.848 -0.932589 104.01 0.276941C87.1717 1.48647 70.8534 6.63543 56.3704 15.3088C41.8875 23.9821 29.645 35.9371 20.6301 50.2099C20.1401 50.9899 19.6502 51.78 19.1802 52.57C18.7002 53.37 18.2401 54.17 17.7801 54.98C8.72077 71.0832 3.97415 89.2533 4.00011 107.73Z" fill="#060517"/>
</g>
<path d="M108.283 41.6792C125.999 46.225 144.154 48.8453 162.432 49.4945C165.196 49.6451 167.966 49.6262 170.728 49.4381C176.797 48.9276 181.995 47.0202 187.785 45.9778C190.568 45.4781 193.669 45.1127 196.471 44.5727C195.823 43.7694 195.164 42.9759 194.493 42.1924C188.451 42.7028 182.315 44.3739 176.2 45.1503C165.806 46.4721 154.16 44.9971 146.28 41.3595C142.457 39.5944 139.528 37.3914 135.719 35.6183C135.201 35.3523 134.639 35.1804 134.061 35.1105C132.963 35.0775 131.878 35.359 130.934 35.9218C124.543 39.1484 115.263 41.7705 106.65 40.3279C106.008 40.8302 107.228 41.4025 108.283 41.6792Z" fill="#6A67CE"/>
<path d="M70.1687 53.0342C70.09 53.0198 70.0111 53.0086 69.9324 52.995C70.2633 52.7899 70.5749 52.5552 70.8633 52.2937L70.1687 53.0342Z" fill="white"/>
<path d="M18.6077 59.4C22.205 59.6875 25.8211 59.9015 29.4561 60.0421C32.2201 60.1914 34.9906 60.1725 37.7523 59.9857C43.8213 59.4726 49.0199 57.5678 54.8095 56.5254C60.1155 55.5716 66.5633 55.1123 69.9323 52.9952C61.2251 51.488 52.2035 54.5561 43.2249 55.6979C35.9623 56.591 28.6001 56.2274 21.4608 54.6233C20.4668 56.1869 19.5157 57.7791 18.6077 59.4Z" fill="#6A67CE"/>
<path d="M60.6 202.4C61.46 202.87 62.33 203.32 63.2 203.75C63.51 203.9 63.83 204.05 64.14 204.21C64.4 204.33 64.66 204.46 64.92 204.58C65 204.62 65.07 204.65 65.14 204.69C65.36 204.79 65.57 204.89 65.79 204.99C66.03 205.1 66.27 205.21 66.5 205.32C66.77 205.44 67.03 205.56 67.3 205.67C68.3 206.12 69.31 206.55 70.32 206.96C73.9396 208.444 77.6386 209.726 81.4 210.8C81.57 210.85 81.75 210.9 81.93 210.95C83.5401 211.4 85.1601 211.81 86.7901 212.18C89.6401 212.84 92.5167 213.38 95.4201 213.8H95.4401C95.7901 213.85 96.1301 213.9 96.4801 213.95C96.5101 213.95 96.5401 213.96 96.5801 213.96C96.5801 213.97 96.5801 213.97 96.5901 213.96C96.9701 214.01 97.3601 214.06 97.7401 214.11C97.766 214.118 97.793 214.121 97.8201 214.12C98.1801 214.17 98.5501 214.21 98.9101 214.25C99.3 214.29 99.69 214.33 100.08 214.37C100.38 214.4 100.68 214.43 100.98 214.46C101.006 214.469 101.033 214.473 101.06 214.47C101.33 214.49 101.6 214.52 101.87 214.54H101.91C102.14 214.56 102.38 214.58 102.61 214.6C105.4 214.82 108.2 214.92 111.04 214.92C114.11 214.92 117.16 214.8 120.17 214.54H120.2C120.85 214.48 121.49 214.42 122.13 214.36C122.3 214.34 122.46 214.33 122.63 214.31C122.66 214.31 122.7 214.3 122.73 214.3C122.78 214.29 122.83 214.29 122.89 214.28C122.917 214.281 122.944 214.278 122.97 214.27C123.19 214.25 123.41 214.22 123.64 214.2L124.39 214.11C124.64 214.08 124.89 214.04 125.14 214.01C125.2 214 125.25 214 125.31 213.99C125.49 213.97 125.67 213.94 125.85 213.91C125.94 213.9 126.03 213.89 126.11 213.88C126.29 213.85 126.46 213.83 126.64 213.8H126.65C132.137 213.011 137.554 211.79 142.85 210.15C143.13 210.06 143.41 209.98 143.69 209.89C142.399 203.869 139.741 198.225 135.921 193.394C132.101 188.563 127.222 184.675 121.66 182.03C123.036 180.72 123.987 179.027 124.39 177.17C124.65 175.974 124.67 174.737 124.451 173.533C124.231 172.328 123.775 171.179 123.11 170.15C121.812 168.158 119.777 166.762 117.45 166.27L102.63 163.17C100.244 162.705 97.7715 163.201 95.7491 164.549C93.7267 165.897 92.3183 167.989 91.8301 170.37C91.6789 171.1 91.6118 171.845 91.6301 172.59C77.36 182.09 67.09 191.94 60.6 202.4Z" fill="#693875"/>
<path d="M120.754 158.122C140.677 158.122 156.827 141.971 156.827 122.049C156.827 102.126 140.677 85.9756 120.754 85.9756C100.831 85.9756 84.6809 102.126 84.6809 122.049C84.6809 141.971 100.831 158.122 120.754 158.122Z" fill="#9E616A"/>
<path d="M107.839 153.546C98.5015 154.103 89.4096 148.909 83.7556 141.457C78.1015 134.005 75.5518 124.576 74.8899 115.245C74.4052 108.411 75.0255 101.065 79.1555 95.5987C83.2855 90.1325 91.8695 87.6451 97.2047 91.943C94.4108 86.8902 97.7198 80.1753 102.781 77.3957C107.841 74.6161 113.965 74.7867 119.708 75.3762C128.044 76.2317 136.495 77.8843 143.715 82.1372C150.935 86.3901 156.795 93.6332 157.603 101.974C159.847 103.644 162.581 104.523 165.377 104.473C168.174 104.423 170.875 103.447 173.057 101.697C173.005 104.215 172.125 106.645 170.553 108.611C168.981 110.578 166.804 111.972 164.36 112.577L177.061 111.183C178.21 115.939 173.514 120.559 168.64 120.996C163.766 121.434 159.13 118.892 155.193 115.987C151.255 113.081 147.563 109.674 142.997 107.913C138.432 106.153 132.564 106.522 129.495 110.332C127.887 112.328 127.286 114.931 126.12 117.213C124.954 119.496 122.75 121.656 120.207 121.336C118.6 121.134 117.227 119.971 115.615 119.817C114.608 119.807 113.621 120.091 112.773 120.634C111.925 121.177 111.254 121.955 110.842 122.874C110.049 124.724 109.632 126.714 109.615 128.727L107.853 152.461L107.839 153.546Z" fill="#2F2E41"/>
<g filter="url(#filter1_d_236_1107)">
<path d="M135 363.73C135 366.16 135.08 368.59 135.25 371C135.43 373.88 135.74 376.74 136.16 379.58C137.572 389.142 140.269 398.47 144.18 407.31C144.38 407.75 144.58 408.19 144.78 408.63L145.08 409.29C145.18 409.51 145.29 409.73 145.39 409.94C145.53 410.23 145.66 410.51 145.8 410.79C145.97 411.14 146.14 411.49 146.32 411.84C146.34 411.88 146.36 411.93 146.39 411.98C146.54 412.28 146.68 412.57 146.84 412.87C146.87 412.935 146.903 412.999 146.94 413.06C147.11 413.4 147.29 413.75 147.47 414.09C147.67 414.45 147.86 414.82 148.06 415.18C148.54 416.07 149.04 416.95 149.55 417.83C149.7 418.09 149.85 418.35 150.01 418.61C150.15 418.85 150.29 419.09 150.44 419.33C150.54 419.49 150.64 419.66 150.74 419.82C150.9 420.09 151.06 420.35 151.23 420.62C151.6 421.21 151.98 421.8 152.35 422.39H152.36C152.53 422.66 152.71 422.93 152.89 423.19V423.2C153.42 424 153.97 424.8 154.52 425.59C154.521 425.59 154.523 425.59 154.524 425.591C154.525 425.591 154.526 425.592 154.527 425.593C154.528 425.594 154.529 425.595 154.529 425.596C154.53 425.597 154.53 425.599 154.53 425.6C154.97 426.24 155.43 426.86 155.88 427.48V427.49C156.18 427.88 156.47 428.28 156.77 428.67C157.01 428.99 157.26 429.32 157.51 429.64C157.56 429.71 157.62 429.77 157.67 429.84V429.85C157.74 429.94 157.81 430.02 157.88 430.11C158.94 431.47 160.033 432.8 161.16 434.1L161.34 434.31C161.4 434.38 161.47 434.45 161.53 434.53C161.63 434.64 161.72 434.75 161.82 434.86C161.91 434.97 162.01 435.08 162.11 435.19C167.983 441.806 174.643 447.679 181.94 452.68C182.91 453.35 183.9 454 184.89 454.63C185.14 454.79 185.39 454.95 185.64 455.1C185.71 455.15 185.79 455.2 185.86 455.25C186 455.33 186.13 455.41 186.27 455.5C186.4 455.58 186.53 455.66 186.67 455.74C187.2 456.07 187.74 456.39 188.28 456.71C188.41 456.79 188.55 456.87 188.69 456.95C188.82 457.02 188.96 457.1 189.1 457.18C189.1 457.19 189.1 457.19 189.11 457.19H189.12V457.2H189.13C189.8 457.59 190.48 457.97 191.17 458.34C191.54 458.54 191.92 458.75 192.3 458.94C193.16 459.41 194.03 459.86 194.9 460.29C195.21 460.44 195.53 460.59 195.84 460.75C196.1 460.87 196.36 461 196.62 461.12C196.7 461.16 196.77 461.19 196.84 461.23C197.06 461.33 197.27 461.43 197.49 461.53C197.73 461.64 197.97 461.75 198.2 461.86C198.47 461.98 198.73 462.1 199 462.21C200 462.66 201.01 463.09 202.02 463.5C205.64 464.984 209.339 466.266 213.1 467.34C213.27 467.39 213.45 467.44 213.63 467.49C215.24 467.94 216.86 468.35 218.49 468.72C221.34 469.38 224.217 469.92 227.12 470.34H227.14C227.49 470.39 227.83 470.44 228.18 470.49C228.21 470.49 228.24 470.5 228.28 470.5C228.28 470.51 228.28 470.51 228.29 470.5C228.67 470.55 229.06 470.6 229.44 470.65C229.466 470.658 229.493 470.661 229.52 470.66C229.88 470.71 230.25 470.75 230.61 470.79C231 470.83 231.39 470.87 231.78 470.91C232.08 470.94 232.38 470.97 232.68 471C232.706 471.009 232.733 471.012 232.76 471.01C233.03 471.03 233.3 471.06 233.57 471.08H233.61C233.84 471.1 234.08 471.12 234.31 471.14C237.1 471.36 239.9 471.46 242.74 471.46C245.81 471.46 248.86 471.34 251.87 471.08H251.9C252.55 471.02 253.19 470.96 253.83 470.9C254 470.88 254.16 470.87 254.33 470.85C254.36 470.85 254.4 470.84 254.43 470.84C254.48 470.83 254.53 470.83 254.59 470.82C254.617 470.821 254.644 470.818 254.67 470.81C254.89 470.79 255.11 470.76 255.34 470.74L256.09 470.65C256.34 470.62 256.59 470.58 256.84 470.55C256.9 470.54 256.95 470.54 257.01 470.53C257.19 470.51 257.37 470.48 257.55 470.45C257.64 470.44 257.73 470.43 257.81 470.42C257.99 470.39 258.16 470.37 258.34 470.34H258.35C263.838 469.55 269.254 468.33 274.55 466.69C274.83 466.6 275.11 466.52 275.39 466.43C275.4 466.43 275.41 466.42 275.42 466.42C275.5 466.39 275.59 466.37 275.67 466.34C276.42 466.1 277.16 465.85 277.9 465.59C278.92 465.25 279.93 464.88 280.94 464.5C281.21 464.39 281.48 464.29 281.75 464.18C282.3 463.97 282.84 463.75 283.38 463.53C284.3 463.16 285.22 462.77 286.13 462.37C286.98 461.99 287.82 461.61 288.66 461.21C288.68 461.2 288.71 461.2 288.73 461.18C288.92 461.09 289.11 461 289.29 460.91H289.3C293.905 458.7 298.347 456.163 302.59 453.32C303.95 452.41 305.29 451.47 306.61 450.5C307.67 449.71 308.71 448.91 309.75 448.09C314.881 444.009 319.63 439.47 323.94 434.53V434.52C324.25 434.18 324.54 433.83 324.84 433.48C324.89 433.43 324.93 433.38 324.97 433.34C325.16 433.11 325.34 432.89 325.53 432.67V432.66C325.78 432.37 326.03 432.07 326.27 431.77C326.33 431.7 326.38 431.64 326.43 431.58V431.57C326.63 431.33 326.82 431.09 327.02 430.84C327.12 430.72 327.21 430.6 327.31 430.48V430.47C327.9 429.73 328.47 428.99 329.04 428.23C329.19 428.03 329.34 427.82 329.5 427.61C330.22 426.64 330.92 425.65 331.6 424.66V424.65C331.86 424.28 332.11 423.9 332.37 423.53C332.62 423.15 332.87 422.77 333.12 422.39C333.37 421.99 333.63 421.6 333.88 421.2L333.91 421.14C334.16 420.76 334.41 420.36 334.65 419.97C334.84 419.65 335.03 419.34 335.22 419.03C335.34 418.82 335.47 418.61 335.59 418.39C335.637 418.322 335.68 418.252 335.72 418.18C336 417.69 336.28 417.2 336.56 416.71C336.89 416.14 337.21 415.56 337.53 414.98C337.65 414.74 337.78 414.5 337.91 414.26C337.96 414.18 338 414.1 338.04 414.02C338.19 413.74 338.34 413.45 338.48 413.16C338.63 412.88 338.78 412.59 338.93 412.3C339.07 412.02 339.22 411.73 339.36 411.44C339.47 411.22 339.57 411 339.68 410.78C339.688 410.762 339.698 410.745 339.71 410.73C339.76 410.62 339.81 410.52 339.85 410.42C339.862 410.405 339.872 410.388 339.88 410.37C339.99 410.15 340.09 409.92 340.2 409.7C340.34 409.41 340.47 409.11 340.61 408.82C340.7 408.62 340.8 408.41 340.89 408.2C341.02 407.91 341.16 407.62 341.28 407.32C341.42 407.02 341.55 406.72 341.68 406.41C341.718 406.335 341.751 406.258 341.78 406.18C341.85 406.04 341.9 405.9 341.96 405.76C342.12 405.39 342.28 405.01 342.43 404.64C342.61 404.22 342.78 403.79 342.94 403.37C343.1 402.98 343.25 402.58 343.4 402.18L343.46 402.04C345.79 395.903 347.557 389.567 348.74 383.11V383.1C349.407 379.414 349.884 375.695 350.17 371.96C350.18 371.75 350.2 371.55 350.21 371.35C350.39 368.82 350.47 366.28 350.47 363.73C350.47 362.6 350.45 361.48 350.42 360.36C349.722 336.936 341.369 314.386 326.64 296.16C326.32 295.76 326 295.36 325.67 294.96C325.34 294.56 325 294.17 324.67 293.78C313.708 280.942 299.882 270.86 284.308 264.345C268.734 257.831 251.848 255.067 235.01 256.277C218.172 257.486 201.853 262.635 187.37 271.309C172.887 279.982 160.645 291.937 151.63 306.21C151.14 306.99 150.65 307.78 150.18 308.57C149.7 309.37 149.24 310.17 148.78 310.98C139.721 327.083 134.974 345.253 135 363.73Z" fill="#060517"/>
</g>
<path d="M238.458 293.263C256.174 297.809 274.328 300.43 292.606 301.079C295.37 301.229 298.141 301.211 300.902 301.022C306.971 300.512 312.17 298.604 317.96 297.562C320.743 297.062 323.843 296.697 326.645 296.157C325.998 295.354 325.339 294.56 324.668 293.777C318.626 294.287 312.49 295.958 306.375 296.735C295.981 298.056 284.334 296.581 276.454 292.944C272.631 291.179 269.703 288.976 265.893 287.203C265.375 286.937 264.814 286.765 264.236 286.695C263.137 286.662 262.052 286.943 261.109 287.506C254.717 290.733 245.438 293.355 236.825 291.912C236.182 292.415 237.402 292.987 238.458 293.263Z" fill="#6A67CE"/>
<path d="M200.343 304.618C200.265 304.604 200.186 304.593 200.107 304.579C200.438 304.374 200.749 304.139 201.038 303.878L200.343 304.618Z" fill="white"/>
<path d="M148.782 310.984C152.38 311.272 155.996 311.486 159.631 311.626C162.395 311.775 165.165 311.757 167.927 311.57C173.996 311.057 179.194 309.152 184.984 308.11C190.29 307.156 196.738 306.696 200.107 304.579C191.4 303.072 182.378 306.14 173.399 307.282C166.137 308.175 158.775 307.812 151.635 306.207C150.641 307.771 149.69 309.363 148.782 310.984Z" fill="#6A67CE"/>
<path d="M192.3 458.94C193.16 459.41 194.03 459.86 194.9 460.29C195.21 460.44 195.53 460.59 195.84 460.75C196.1 460.87 196.36 461 196.62 461.12C196.7 461.16 196.77 461.19 196.84 461.23C197.06 461.33 197.27 461.43 197.49 461.53C197.73 461.64 197.97 461.75 198.2 461.86C198.47 461.98 198.73 462.1 199 462.21C200 462.66 201.01 463.09 202.02 463.5C205.64 464.984 209.339 466.266 213.1 467.34C213.27 467.39 213.45 467.44 213.63 467.49C215.24 467.94 216.86 468.35 218.49 468.72C221.34 469.38 224.217 469.92 227.12 470.34H227.14C227.49 470.39 227.83 470.44 228.18 470.49C228.21 470.49 228.24 470.5 228.28 470.5C228.28 470.51 228.28 470.51 228.29 470.5C228.67 470.55 229.06 470.6 229.44 470.65C229.466 470.658 229.493 470.661 229.52 470.66C229.88 470.71 230.25 470.75 230.61 470.79C231 470.83 231.39 470.87 231.78 470.91C232.08 470.94 232.38 470.97 232.68 471C232.706 471.009 232.733 471.012 232.76 471.01C233.03 471.03 233.3 471.06 233.57 471.08H233.61C233.84 471.1 234.08 471.12 234.31 471.14C237.1 471.36 239.9 471.46 242.74 471.46C245.81 471.46 248.86 471.34 251.87 471.08H251.9C252.55 471.02 253.19 470.96 253.83 470.9C254 470.88 254.16 470.87 254.33 470.85C254.36 470.85 254.4 470.84 254.43 470.84C254.48 470.83 254.53 470.83 254.59 470.82C254.617 470.821 254.644 470.818 254.67 470.81C254.89 470.79 255.11 470.76 255.34 470.74L256.09 470.65C256.34 470.62 256.59 470.58 256.84 470.55C256.9 470.54 256.95 470.54 257.01 470.53C257.19 470.51 257.37 470.48 257.55 470.45C257.64 470.44 257.73 470.43 257.81 470.42C257.99 470.39 258.16 470.37 258.34 470.34H258.35C263.838 469.55 269.254 468.33 274.55 466.69C274.83 466.6 275.11 466.52 275.39 466.43C274.099 460.408 271.441 454.764 267.621 449.933C263.801 445.103 258.922 441.215 253.36 438.57C254.736 437.26 255.687 435.567 256.09 433.71C256.35 432.513 256.37 431.277 256.151 430.072C255.931 428.868 255.475 427.718 254.81 426.69C253.513 424.697 251.477 423.302 249.15 422.81L234.33 419.71C231.944 419.245 229.472 419.74 227.449 421.089C225.427 422.437 224.018 424.529 223.53 426.91C223.379 427.64 223.312 428.385 223.33 429.13C209.06 438.63 198.79 448.48 192.3 458.94Z" fill="#D1F89F"/>
<path d="M236.059 413.856C253.111 413.856 266.935 400.033 266.935 382.981C266.935 365.929 253.111 352.105 236.059 352.105C219.007 352.105 205.184 365.929 205.184 382.981C205.184 400.033 219.007 413.856 236.059 413.856Z" fill="#FFB8B8"/>
<path d="M216.814 409.6C213.521 407.351 210.159 403.029 207.914 399.79C204.94 395.533 202.893 390.697 201.907 385.598C200.921 380.499 201.017 375.249 202.19 370.189C202.564 368.166 203.483 366.283 204.847 364.744C206.302 363.305 208.677 362.623 210.452 363.64C209.967 362.343 209.754 360.961 209.825 359.578C209.895 358.195 210.249 356.842 210.863 355.601C212.111 353.123 213.918 350.97 216.143 349.313C220.396 346.037 225.458 343.974 230.79 343.343C236.121 342.712 241.525 343.536 246.426 345.728C248.355 346.621 245.187 339.719 247.206 340.385C249.211 341.161 251.44 341.122 253.417 340.276C255.316 339.32 261.609 344.998 260.881 343.001C262.322 343.655 263.574 344.664 264.52 345.932C265.466 347.2 266.076 348.687 266.293 350.255C266.51 351.822 266.326 353.419 265.76 354.897C265.193 356.374 264.262 357.684 263.053 358.705C261.459 360.05 259.47 360.824 257.725 361.966C254.668 364.117 252.504 367.312 251.642 370.949C250.78 374.586 251.279 378.413 253.046 381.707C251.21 380.527 249.196 379.652 247.081 379.115C246.02 378.856 244.913 378.854 243.851 379.109C242.789 379.365 241.804 379.87 240.976 380.583C240.285 381.374 239.763 382.298 239.442 383.298C239.121 384.298 239.008 385.353 239.109 386.399C239.178 388.494 239.677 390.558 239.733 392.654C239.897 398.803 243.19 410.494 238.423 413.763C234.66 416.342 221.309 412.671 216.814 409.6Z" fill="#2F2E41"/>
<g filter="url(#filter2_d_236_1107)">
<path d="M546.47 174.73C546.47 177.16 546.39 179.59 546.22 182C546.04 184.88 545.73 187.74 545.31 190.58C543.899 200.142 541.201 209.47 537.29 218.31C537.09 218.75 536.89 219.19 536.69 219.63L536.39 220.29C536.29 220.51 536.18 220.73 536.08 220.94C535.94 221.23 535.81 221.51 535.67 221.79C535.5 222.14 535.33 222.49 535.15 222.84C535.13 222.88 535.11 222.93 535.08 222.98C534.93 223.28 534.79 223.57 534.63 223.87C534.601 223.935 534.567 223.999 534.53 224.06C534.36 224.4 534.18 224.75 534 225.09C533.8 225.45 533.61 225.82 533.41 226.18C532.93 227.07 532.43 227.95 531.92 228.83C531.77 229.09 531.62 229.35 531.46 229.61C531.32 229.85 531.18 230.09 531.03 230.33C530.93 230.49 530.83 230.66 530.73 230.82C530.57 231.09 530.41 231.35 530.24 231.62C529.87 232.21 529.49 232.8 529.12 233.39H529.11C528.94 233.66 528.76 233.93 528.58 234.19V234.2C528.05 235 527.5 235.8 526.95 236.59C526.949 236.59 526.947 236.59 526.946 236.591C526.945 236.591 526.944 236.592 526.943 236.593C526.942 236.594 526.941 236.595 526.941 236.596C526.94 236.597 526.94 236.599 526.94 236.6C526.5 237.24 526.04 237.86 525.59 238.48V238.49C525.29 238.88 525 239.28 524.7 239.67C524.46 239.99 524.21 240.32 523.96 240.64C523.91 240.71 523.85 240.77 523.8 240.84V240.85C523.73 240.94 523.66 241.02 523.59 241.11C522.53 242.47 521.437 243.8 520.31 245.1L520.13 245.31C520.07 245.38 520 245.45 519.94 245.53C519.84 245.64 519.75 245.75 519.65 245.86C519.56 245.97 519.46 246.08 519.36 246.19C513.487 252.806 506.828 258.679 499.53 263.68C498.56 264.35 497.57 265 496.58 265.63C496.33 265.79 496.08 265.95 495.83 266.1C495.76 266.15 495.68 266.2 495.61 266.25C495.47 266.33 495.34 266.41 495.2 266.5C495.07 266.58 494.94 266.66 494.8 266.74C494.27 267.07 493.73 267.39 493.19 267.71C493.06 267.79 492.92 267.87 492.78 267.95C492.65 268.02 492.51 268.1 492.37 268.18C492.37 268.19 492.37 268.19 492.36 268.19H492.35V268.2H492.34C491.67 268.59 490.99 268.97 490.3 269.34C489.93 269.54 489.55 269.75 489.17 269.94C488.31 270.41 487.44 270.86 486.57 271.29C486.26 271.44 485.94 271.59 485.63 271.75C485.37 271.87 485.11 272 484.85 272.12C484.77 272.16 484.7 272.19 484.63 272.23C484.41 272.33 484.2 272.43 483.98 272.53C483.74 272.64 483.5 272.75 483.27 272.86C483 272.98 482.74 273.1 482.47 273.21C481.47 273.66 480.46 274.09 479.45 274.5C475.831 275.984 472.131 277.266 468.37 278.34C468.2 278.39 468.02 278.44 467.84 278.49C466.23 278.94 464.61 279.35 462.98 279.72C460.13 280.38 457.253 280.92 454.35 281.34H454.33C453.98 281.39 453.64 281.44 453.29 281.49C453.26 281.49 453.23 281.5 453.19 281.5C453.19 281.51 453.19 281.51 453.18 281.5C452.8 281.55 452.41 281.6 452.03 281.65C452.004 281.658 451.977 281.661 451.95 281.66C451.59 281.71 451.22 281.75 450.86 281.79C450.47 281.83 450.08 281.87 449.69 281.91C449.39 281.94 449.09 281.97 448.79 282C448.764 282.009 448.737 282.012 448.71 282.01C448.44 282.03 448.17 282.06 447.9 282.08H447.86C447.63 282.1 447.39 282.12 447.16 282.14C444.37 282.36 441.57 282.46 438.73 282.46C435.66 282.46 432.61 282.34 429.6 282.08H429.57C428.92 282.02 428.28 281.96 427.64 281.9C427.47 281.88 427.31 281.87 427.14 281.85C427.11 281.85 427.07 281.84 427.04 281.84C426.99 281.83 426.94 281.83 426.88 281.82C426.853 281.821 426.826 281.818 426.8 281.81C426.58 281.79 426.36 281.76 426.13 281.74L425.38 281.65C425.13 281.62 424.88 281.58 424.63 281.55C424.57 281.54 424.52 281.54 424.46 281.53C424.28 281.51 424.1 281.48 423.92 281.45C423.83 281.44 423.74 281.43 423.66 281.42C423.48 281.39 423.31 281.37 423.13 281.34H423.12C417.633 280.55 412.216 279.33 406.92 277.69C406.64 277.6 406.36 277.52 406.08 277.43C406.07 277.43 406.06 277.42 406.05 277.42C405.97 277.39 405.88 277.37 405.8 277.34C405.05 277.1 404.31 276.85 403.57 276.59C402.55 276.25 401.54 275.88 400.53 275.5C400.26 275.39 399.99 275.29 399.72 275.18C399.17 274.97 398.63 274.75 398.09 274.53C397.17 274.16 396.25 273.77 395.34 273.37C394.49 272.99 393.65 272.61 392.81 272.21C392.79 272.2 392.76 272.2 392.74 272.18C392.55 272.09 392.36 272 392.18 271.91H392.17C387.565 269.7 383.123 267.163 378.88 264.32C377.52 263.41 376.18 262.47 374.86 261.5C373.8 260.71 372.76 259.91 371.72 259.09C366.589 255.009 361.84 250.47 357.53 245.53V245.52C357.22 245.18 356.93 244.83 356.63 244.48C356.58 244.43 356.54 244.38 356.5 244.34C356.31 244.11 356.13 243.89 355.94 243.67V243.66C355.69 243.37 355.44 243.07 355.2 242.77C355.14 242.7 355.09 242.64 355.04 242.58V242.57C354.84 242.33 354.65 242.09 354.45 241.84C354.35 241.72 354.26 241.6 354.16 241.48V241.47C353.57 240.73 353 239.99 352.43 239.23C352.28 239.03 352.13 238.82 351.97 238.61C351.25 237.64 350.55 236.65 349.87 235.66V235.65C349.61 235.28 349.36 234.9 349.1 234.53C348.85 234.15 348.6 233.77 348.35 233.39C348.1 232.99 347.84 232.6 347.59 232.2L347.56 232.14C347.31 231.76 347.06 231.36 346.82 230.97C346.63 230.65 346.44 230.34 346.25 230.03C346.13 229.82 346 229.61 345.88 229.39C345.833 229.322 345.79 229.252 345.75 229.18C345.47 228.69 345.19 228.2 344.91 227.71C344.58 227.14 344.26 226.56 343.94 225.98C343.82 225.74 343.69 225.5 343.56 225.26C343.51 225.18 343.47 225.1 343.43 225.02C343.28 224.74 343.13 224.45 342.99 224.16C342.84 223.88 342.69 223.59 342.54 223.3C342.4 223.02 342.25 222.73 342.11 222.44C342 222.22 341.9 222 341.79 221.78C341.782 221.762 341.772 221.745 341.76 221.73C341.71 221.62 341.66 221.52 341.62 221.42C341.608 221.405 341.598 221.388 341.59 221.37C341.48 221.15 341.38 220.92 341.27 220.7C341.13 220.41 341 220.11 340.86 219.82C340.77 219.62 340.67 219.41 340.58 219.2C340.45 218.91 340.31 218.62 340.19 218.32C340.05 218.02 339.92 217.72 339.79 217.41C339.752 217.335 339.719 217.258 339.69 217.18C339.62 217.04 339.57 216.9 339.51 216.76C339.35 216.39 339.19 216.01 339.04 215.64C338.86 215.22 338.69 214.79 338.53 214.37C338.37 213.98 338.22 213.58 338.07 213.18L338.01 213.04C335.68 206.903 333.913 200.567 332.73 194.11V194.1C332.063 190.414 331.586 186.695 331.3 182.96C331.29 182.75 331.27 182.55 331.26 182.35C331.08 179.82 331 177.28 331 174.73C331 173.6 331.02 172.48 331.05 171.36C331.748 147.936 340.101 125.386 354.83 107.16C355.15 106.76 355.47 106.36 355.8 105.96C356.13 105.56 356.47 105.17 356.8 104.78C367.762 91.9421 381.588 81.8597 397.162 75.3454C412.736 68.8312 429.622 66.0674 446.46 67.2769C463.298 68.4865 479.617 73.6354 494.1 82.3088C508.583 90.9821 520.825 102.937 529.84 117.21C530.33 117.99 530.82 118.78 531.29 119.57C531.77 120.37 532.23 121.17 532.69 121.98C541.749 138.083 546.496 156.253 546.47 174.73V174.73Z" fill="#060517"/>
</g>
<path d="M426.585 221.871C444.456 221.871 458.943 207.061 458.943 188.792C458.943 170.522 444.456 155.712 426.585 155.712C408.714 155.712 394.226 170.522 394.226 188.792C394.226 207.061 408.714 221.871 426.585 221.871Z" fill="#FFB6B6"/>
<path d="M443.012 104.263C425.297 108.809 407.142 111.429 388.864 112.079C386.1 112.229 383.329 112.21 380.568 112.022C374.499 111.512 369.3 109.604 363.511 108.562C360.727 108.062 357.627 107.697 354.825 107.157C355.472 106.354 356.131 105.56 356.802 104.777C362.844 105.287 368.981 106.958 375.095 107.735C385.49 109.056 397.136 107.581 405.016 103.944C408.839 102.179 411.767 99.9756 415.577 98.2025C416.095 97.9365 416.656 97.7646 417.234 97.6947C418.333 97.6618 419.418 97.9433 420.362 98.5061C426.753 101.733 436.032 104.355 444.646 102.912C445.288 103.414 444.068 103.987 443.012 104.263Z" fill="#6A67CE"/>
<path d="M513.173 174.445C507.672 168.031 505.057 159.521 500.66 152.237C496.263 144.954 488.612 138.435 480.528 140.13C474.956 141.298 470.649 146.215 468.469 151.697C466.289 157.179 465.88 163.225 465.498 169.147C465.633 156.976 457.615 145.177 446.569 141.294C435.524 137.41 422.304 141.742 415.364 151.52C412.335 148.713 408.381 147.114 404.252 147.027C400.123 146.941 396.106 148.372 392.962 151.05C386.754 156.599 385.38 167.16 389.946 174.237C394.511 181.315 404.399 183.951 411.655 180.026L414.22 182.386C412.777 187.436 415.577 193.401 420.284 195.302C424.101 196.844 429.489 196.587 430.917 200.593C431.915 203.392 430.05 206.379 428.065 208.53C426.081 210.68 423.725 212.901 423.487 215.877C423.127 220.368 427.767 223.513 431.985 224.461C442.157 226.745 453.443 222.035 459.305 213.059C459.418 212.886 459.541 212.712 459.674 212.539C462.963 208.332 465.36 203.5 466.718 198.336C468.077 193.172 468.368 187.785 467.574 182.505C467.245 180.431 467.577 178.887 469.007 178.396C475.19 176.272 492.512 180.73 497.754 184.758C502.996 188.786 507.194 194.117 512.244 198.406C517.294 202.694 523.728 206.002 530.14 204.834C535.275 203.899 539.643 200.171 542.582 195.674C545.52 191.177 547.211 185.936 548.726 180.727C537.371 187.287 521.83 184.541 513.173 174.445Z" fill="#2F2E41"/>
<path d="M478.803 272.869C477.906 273.265 477.001 273.639 476.098 273.994C475.777 274.117 475.445 274.24 475.123 274.373C474.853 274.471 474.583 274.578 474.314 274.676C474.231 274.709 474.159 274.733 474.086 274.767C473.858 274.848 473.64 274.93 473.413 275.011C473.164 275.1 472.916 275.189 472.677 275.279C472.398 275.376 472.129 275.474 471.85 275.56C470.816 275.924 469.773 276.267 468.732 276.59C465 277.762 461.206 278.726 457.367 279.478C457.193 279.514 457.009 279.548 456.826 279.583C455.184 279.895 453.535 280.166 451.879 280.397C448.984 280.813 446.071 281.108 443.143 281.281L443.123 281.279C442.77 281.299 442.427 281.32 442.074 281.34C442.044 281.338 442.013 281.345 441.974 281.342C441.973 281.352 441.973 281.352 441.964 281.341C441.581 281.359 441.188 281.375 440.805 281.393C440.779 281.399 440.751 281.4 440.725 281.396C440.362 281.416 439.99 281.424 439.627 281.433C439.236 281.44 438.844 281.447 438.451 281.454C438.15 281.459 437.849 281.463 437.547 281.468C437.521 281.474 437.493 281.475 437.467 281.471C437.196 281.468 436.924 281.475 436.654 281.472L436.614 281.469C436.383 281.469 436.142 281.469 435.911 281.469C433.112 281.452 430.314 281.315 427.484 281.074C424.425 280.814 421.396 280.437 418.419 279.923L418.389 279.92C417.747 279.805 417.114 279.691 416.481 279.577C416.314 279.543 416.155 279.52 415.988 279.485C415.958 279.483 415.919 279.469 415.889 279.467C415.84 279.453 415.79 279.448 415.731 279.433C415.704 279.432 415.677 279.426 415.652 279.417C415.435 279.378 415.218 279.33 414.99 279.29L414.251 279.137C414.004 279.086 413.758 279.025 413.512 278.974C413.453 278.959 413.403 278.955 413.344 278.94C413.167 278.904 412.99 278.859 412.813 278.814C412.724 278.797 412.635 278.779 412.556 278.762C412.38 278.717 412.212 278.683 412.035 278.638L412.025 278.637C406.624 277.385 401.33 275.711 396.192 273.629C395.921 273.515 395.649 273.412 395.377 273.298C397.174 267.408 400.3 262.009 404.515 257.519C408.73 253.029 413.921 249.568 419.687 247.403C418.427 245.981 417.623 244.214 417.378 242.33C417.221 241.115 417.305 239.882 417.626 238.7C417.946 237.518 418.498 236.411 419.248 235.443C420.709 233.568 422.856 232.349 425.216 232.056L440.245 230.222C442.662 229.961 445.084 230.664 446.985 232.178C448.886 233.693 450.112 235.897 450.397 238.31C450.486 239.051 450.489 239.798 450.408 240.539C463.823 251.213 473.222 261.897 478.803 272.869Z" fill="#D98CE0"/>
<path opacity="0.3" d="M262.4 85.8C264.278 85.8 265.8 84.2778 265.8 82.4C265.8 80.5222 264.278 79 262.4 79C260.522 79 259 80.5222 259 82.4C259 84.2778 260.522 85.8 262.4 85.8Z" fill="white"/>
<path opacity="0.3" d="M410.4 331.8C412.278 331.8 413.8 330.278 413.8 328.4C413.8 326.522 412.278 325 410.4 325C408.522 325 407 326.522 407 328.4C407 330.278 408.522 331.8 410.4 331.8Z" fill="white"/>
<path opacity="0.3" d="M459.4 38.8C461.278 38.8 462.8 37.2778 462.8 35.4C462.8 33.5222 461.278 32 459.4 32C457.522 32 456 33.5222 456 35.4C456 37.2778 457.522 38.8 459.4 38.8Z" fill="white"/>
<path opacity="0.3" d="M325 121C326.105 121 327 120.105 327 119C327 117.895 326.105 117 325 117C323.895 117 323 117.895 323 119C323 120.105 323.895 121 325 121Z" fill="white"/>
<path opacity="0.3" d="M241 201C242.105 201 243 200.105 243 199C243 197.895 242.105 197 241 197C239.895 197 239 197.895 239 199C239 200.105 239.895 201 241 201Z" fill="white"/>
<path opacity="0.3" d="M277 249C278.105 249 279 248.105 279 247C279 245.895 278.105 245 277 245C275.895 245 275 245.895 275 247C275 248.105 275.895 249 277 249Z" fill="white"/>
<path opacity="0.3" d="M323 256C324.105 256 325 255.105 325 254C325 252.895 324.105 252 323 252C321.895 252 321 252.895 321 254C321 255.105 321.895 256 323 256Z" fill="white"/>
<path opacity="0.3" d="M119 294C120.105 294 121 293.105 121 292C121 290.895 120.105 290 119 290C117.895 290 117 290.895 117 292C117 293.105 117.895 294 119 294Z" fill="white"/>
<path opacity="0.3" d="M270.4 162.8C272.278 162.8 273.8 161.278 273.8 159.4C273.8 157.522 272.278 156 270.4 156C268.522 156 267 157.522 267 159.4C267 161.278 268.522 162.8 270.4 162.8Z" fill="white"/>
<path opacity="0.3" d="M85.4 383.8C87.2778 383.8 88.8 382.278 88.8 380.4C88.8 378.522 87.2778 377 85.4 377C83.5222 377 82 378.522 82 380.4C82 382.278 83.5222 383.8 85.4 383.8Z" fill="white"/>
<path opacity="0.3" d="M63.4 300.8C65.2778 300.8 66.8 299.278 66.8 297.4C66.8 295.522 65.2778 294 63.4 294C61.5222 294 60 295.522 60 297.4C60 299.278 61.5222 300.8 63.4 300.8Z" fill="white"/>
<defs>
<filter id="filter0_d_236_1107" x="0" y="0" width="223.47" height="223.46" filterUnits="userSpaceOnUse" color-interpolation-filters="sRGB">
<feFlood flood-opacity="0" result="BackgroundImageFix"/>
<feColorMatrix in="SourceAlpha" type="matrix" values="0 0 0 0 0 0 0 0 0 0 0 0 0 0 0 0 0 0 127 0" result="hardAlpha"/>
<feOffset dy="4"/>
<feGaussianBlur stdDeviation="2"/>
<feComposite in2="hardAlpha" operator="out"/>
<feColorMatrix type="matrix" values="0 0 0 0 0 0 0 0 0 0 0 0 0 0 0 0 0 0 0.25 0"/>
<feBlend mode="normal" in2="BackgroundImageFix" result="effect1_dropShadow_236_1107"/>
<feBlend mode="normal" in="SourceGraphic" in2="effect1_dropShadow_236_1107" result="shape"/>
</filter>
<filter id="filter1_d_236_1107" x="131" y="256" width="223.47" height="227.46" filterUnits="userSpaceOnUse" color-interpolation-filters="sRGB">
<feFlood flood-opacity="0" result="BackgroundImageFix"/>
<feColorMatrix in="SourceAlpha" type="matrix" values="0 0 0 0 0 0 0 0 0 0 0 0 0 0 0 0 0 0 127 0" result="hardAlpha"/>
<feOffset dy="8"/>
<feGaussianBlur stdDeviation="2"/>
<feComposite in2="hardAlpha" operator="out"/>
<feColorMatrix type="matrix" values="0 0 0 0 0 0 0 0 0 0 0 0 0 0 0 0 0 0 0.25 0"/>
<feBlend mode="normal" in2="BackgroundImageFix" result="effect1_dropShadow_236_1107"/>
<feBlend mode="normal" in="SourceGraphic" in2="effect1_dropShadow_236_1107" result="shape"/>
</filter>
<filter id="filter2_d_236_1107" x="327" y="67" width="223.47" height="223.46" filterUnits="userSpaceOnUse" color-interpolation-filters="sRGB">
<feFlood flood-opacity="0" result="BackgroundImageFix"/>
<feColorMatrix in="SourceAlpha" type="matrix" values="0 0 0 0 0 0 0 0 0 0 0 0 0 0 0 0 0 0 127 0" result="hardAlpha"/>
<feOffset dy="4"/>
<feGaussianBlur stdDeviation="2"/>
<feComposite in2="hardAlpha" operator="out"/>
<feColorMatrix type="matrix" values="0 0 0 0 0 0 0 0 0 0 0 0 0 0 0 0 0 0 0.25 0"/>
<feBlend mode="normal" in2="BackgroundImageFix" result="effect1_dropShadow_236_1107"/>
<feBlend mode="normal" in="SourceGraphic" in2="effect1_dropShadow_236_1107" result="shape"/>
</filter>
</defs>
</svg>
