<svg width="216" height="216" viewBox="0 0 216 216" fill="none" xmlns="http://www.w3.org/2000/svg">
<path d="M38.5567 70.6806C37.6798 70.2122 37.347 69.1204 37.8351 68.2544C47.5088 51.0875 63.1931 38.074 81.8992 31.7473C101.174 25.2281 122.209 26.2987 140.723 34.7412C159.237 43.1837 173.838 58.3636 181.554 77.1914C189.271 96.0191 189.523 117.08 182.26 136.087C174.996 155.094 160.763 170.62 142.457 179.503C124.151 188.387 103.148 189.961 83.722 183.905C64.2962 177.85 47.9078 164.62 37.8924 146.907C28.1725 129.718 25.1638 109.561 29.4037 90.3181C29.6176 89.3473 30.5937 88.7557 31.5595 88.9913V88.9913C32.5253 89.227 33.1149 90.2006 32.9021 91.1717C28.8785 109.525 31.7569 128.743 41.0261 145.135C50.5908 162.051 66.2417 174.685 84.7934 180.469C103.345 186.252 123.403 184.748 140.885 176.264C158.368 167.781 171.96 152.954 178.897 134.802C185.833 116.65 185.593 96.5371 178.223 78.5566C170.854 60.5761 156.91 46.0793 139.229 38.0167C121.549 29.9541 101.46 28.9317 83.0526 35.1575C65.2139 41.1908 50.2527 53.5918 41.0111 69.9513C40.5222 70.8168 39.4335 71.1491 38.5567 70.6806V70.6806Z" fill="#6A67CE"/>
<path d="M102.762 88.1814C102.835 88.1447 102.924 88.174 102.959 88.2478C103.552 89.5022 103.734 90.9144 103.477 92.2815C103.211 93.6971 102.489 94.9859 101.422 95.9495C100.354 96.9131 99.0014 97.4982 97.5707 97.6146C96.1401 97.7311 94.7111 97.3725 93.5037 96.594C92.2963 95.8155 91.3775 94.6603 90.8886 93.3061C90.3996 91.952 90.3678 90.4739 90.7978 89.0994C91.2279 87.7249 92.096 86.5302 93.2687 85.6991C94.401 84.8966 95.7567 84.4761 97.14 84.4959C97.2216 84.4971 97.2853 84.5659 97.2823 84.6475V84.6475C97.2793 84.7291 97.2107 84.7926 97.129 84.7915C95.8103 84.7739 94.5181 85.1755 93.4385 85.9406C92.3187 86.7343 91.4896 87.8753 91.0789 89.1879C90.6682 90.5005 90.6986 91.9121 91.1656 93.2053C91.6325 94.4985 92.51 95.6018 93.663 96.3452C94.8161 97.0887 96.1807 97.4312 97.547 97.3199C98.9133 97.2087 100.206 96.65 101.225 95.7297C102.244 94.8095 102.934 93.5787 103.188 92.2268C103.433 90.9231 103.26 89.5765 102.695 88.3798C102.661 88.3063 102.69 88.218 102.762 88.1814V88.1814Z" fill="#6A67CE" stroke="#6A67CE" stroke-width="2" stroke-linecap="round" stroke-linejoin="round"/>
<path d="M102.762 88.1814C102.835 88.1447 102.924 88.174 102.959 88.2478C103.552 89.5022 103.734 90.9144 103.477 92.2815C103.211 93.6971 102.489 94.9859 101.422 95.9495C100.354 96.9131 99.0014 97.4982 97.5707 97.6146C96.1401 97.7311 94.7111 97.3725 93.5037 96.594C92.2963 95.8155 91.3775 94.6603 90.8886 93.3061C90.3996 91.952 90.3678 90.4739 90.7978 89.0994C91.2279 87.7249 92.096 86.5302 93.2687 85.6991C94.401 84.8966 95.7567 84.4761 97.14 84.4959C97.2216 84.4971 97.2853 84.5659 97.2823 84.6475V84.6475C97.2793 84.7291 97.2107 84.7926 97.129 84.7915C95.8103 84.7739 94.5181 85.1755 93.4385 85.9406C92.3187 86.7343 91.4896 87.8753 91.0789 89.1879C90.6682 90.5005 90.6986 91.9121 91.1656 93.2053C91.6325 94.4985 92.51 95.6018 93.663 96.3452C94.8161 97.0887 96.1807 97.4312 97.547 97.3199C98.9133 97.2087 100.206 96.65 101.225 95.7297C102.244 94.8095 102.934 93.5787 103.188 92.2268C103.433 90.9231 103.26 89.5765 102.695 88.3798C102.661 88.3063 102.69 88.218 102.762 88.1814V88.1814Z" fill="#6A67CE" stroke="#6A67CE" stroke-width="2" stroke-linecap="round" stroke-linejoin="round"/>
<path d="M71.3018 57.284C71.1519 57.3245 70.9972 57.2358 70.96 57.0849C70.3846 54.7468 70.4964 52.29 71.285 50.0107C72.1044 47.6427 73.6165 45.5756 75.6251 44.0776C77.6338 42.5797 80.0463 41.7199 82.5496 41.61C85.0529 41.5001 87.5314 42.145 89.6637 43.4612C91.7959 44.7774 93.4833 46.7039 94.5071 48.991C95.5308 51.2781 95.8436 53.82 95.4048 56.287C94.966 58.754 93.7958 61.0322 92.0463 62.8259C90.3622 64.5525 88.2161 65.7536 85.868 66.2872C85.7166 66.3216 85.5679 66.223 85.5369 66.0708V66.0708C85.5059 65.9186 85.6043 65.7704 85.7557 65.7358C87.9933 65.2249 90.0382 64.079 91.6436 62.4332C93.3144 60.7201 94.4319 58.5445 94.8509 56.1885C95.27 53.8325 94.9713 51.405 93.9937 49.2208C93.016 47.0367 91.4045 45.1968 89.3682 43.9399C87.3319 42.6829 84.9649 42.067 82.5742 42.172C80.1836 42.2769 77.8797 43.098 75.9614 44.5286C74.0431 45.9591 72.5991 47.9332 71.8166 50.1946C71.0649 52.3674 70.9571 54.709 71.5032 56.9382C71.5402 57.0891 71.4518 57.2434 71.3018 57.284V57.284Z" fill="#6A67CE" stroke="#6A67CE" stroke-width="2" stroke-linecap="round" stroke-linejoin="round"/>
<path d="M145.522 102.276C145.531 102.586 145.286 102.846 144.975 102.847C141.883 102.863 138.813 102.305 135.922 101.2C132.855 100.028 130.049 98.2629 127.665 96.0064C125.28 93.7499 123.363 91.0458 122.024 88.0485C120.76 85.2224 120.034 82.1879 119.879 79.0996C119.864 78.7894 120.109 78.5306 120.42 78.522V78.522C120.73 78.5134 120.988 78.7583 121.004 79.0686C121.155 82.0092 121.848 84.8983 123.051 87.5894C124.33 90.4519 126.161 93.0343 128.438 95.1893C130.715 97.3442 133.395 99.0296 136.323 100.149C139.077 101.201 142 101.734 144.944 101.722C145.255 101.721 145.514 101.965 145.522 102.276V102.276Z" fill="#6A67CE" stroke="#6A67CE" stroke-width="2" stroke-linecap="round" stroke-linejoin="round"/>
<line x1="103.119" y1="87.895" x2="122.788" y2="105.706" stroke="#6A67CE" stroke-width="3" stroke-linecap="round"/>
<path d="M125.296 95.2532L117.526 99.795" stroke="#6A67CE" stroke-width="3" stroke-linecap="round"/>
<path d="M102.237 60.4434L96.1773 58.5167" stroke="#6A67CE" stroke-width="3" stroke-linecap="round"/>
<path d="M97 84L91 79" stroke="#6A67CE" stroke-width="3" stroke-linecap="round"/>
<path d="M91.8563 74.8018L104.144 66.1983" stroke="#6A67CE" stroke-width="3" stroke-linecap="round"/>
<path d="M169.673 74.4189L157.331 92.6309" stroke="#6A67CE" stroke-width="3" stroke-linecap="round"/>
<path d="M166.652 95.4783L158 93" stroke="#6A67CE" stroke-width="3" stroke-linecap="round"/>
<path d="M166.229 96L142 113.69" stroke="#6A67CE" stroke-width="3" stroke-linecap="round"/>
<path d="M142.266 102.896L141.611 113.876" stroke="#6A67CE" stroke-width="3" stroke-linecap="round"/>
<line x1="68.7012" y1="105.701" x2="121.701" y2="105.701" stroke="#6A67CE" stroke-width="3" stroke-linecap="round"/>
<line x1="39.0625" y1="70.496" x2="67.496" y2="116.937" stroke="#6A67CE" stroke-width="3" stroke-linecap="round"/>
<line x1="72.4087" y1="106.137" x2="68.1369" y2="117.351" stroke="#6A67CE" stroke-width="3" stroke-linecap="round"/>
<path d="M100 91.5C100 92.8807 98.8807 94 97.5 94C96.1193 94 95 92.8807 95 91.5C95 90.1193 96.1193 89 97.5 89C98.8807 89 100 90.1193 100 91.5Z" fill="#6A67CE"/>
<path d="M92.5172 80.2444V80.2444C89.6431 78.9343 90.116 74.6951 93.2165 74.0918V74.0918" stroke="#6A67CE" stroke-width="2.8" stroke-linecap="round"/>
<path d="M102.857 60.5947V60.5947C105.934 61.3223 106.295 65.5759 103.369 66.7728V66.7728" stroke="#6A67CE" stroke-width="2.8" stroke-linecap="round"/>
<path d="M83.8026 155.392C83.5146 155.392 83.0826 155.28 82.5066 155.056L70.7466 149.872C70.3306 149.168 70.1226 148.416 70.1226 147.616C70.1226 147.168 70.2186 146.768 70.4106 146.416C70.6346 146.032 70.9546 145.728 71.3706 145.504L84.0426 139.36C84.4586 139.744 84.7786 140.176 85.0026 140.656C85.2586 141.136 85.4026 141.552 85.4346 141.904C85.4346 142.48 85.1946 142.88 84.7146 143.104L75.2106 147.76L85.5306 152.368C85.5306 153.232 85.3386 153.952 84.9546 154.528C84.5706 155.104 84.1866 155.392 83.8026 155.392Z" fill="#6A67CE"/>
<path d="M136.057 155.392C136.345 155.392 136.777 155.28 137.353 155.056L149.113 149.872C149.529 149.168 149.737 148.416 149.737 147.616C149.737 147.168 149.641 146.768 149.449 146.416C149.225 146.032 148.905 145.728 148.489 145.504L135.817 139.36C135.401 139.744 135.081 140.176 134.857 140.656C134.601 141.136 134.457 141.552 134.425 141.904C134.425 142.48 134.665 142.88 135.145 143.104L144.649 147.76L134.329 152.368C134.329 153.232 134.521 153.952 134.905 154.528C135.289 155.104 135.673 155.392 136.057 155.392Z" fill="#6A67CE"/>
<path d="M96.5969 161.215L107.45 131.304C107.546 131.043 107.664 130.863 107.804 130.765C107.971 130.641 108.296 130.581 108.776 130.584C109.259 130.56 110.032 130.581 111.097 130.646L100.239 160.637C100.171 160.874 100.054 161.04 99.8879 161.137C99.72 161.26 99.3957 161.32 98.915 161.317C98.4342 161.315 97.6615 161.281 96.5969 161.215ZM109.898 162.032L120.751 132.12C120.848 131.859 120.965 131.679 121.105 131.581C121.273 131.458 121.597 131.398 122.078 131.4C122.56 131.377 123.334 131.397 124.399 131.463L113.541 161.454C113.473 161.69 113.356 161.857 113.189 161.953C113.022 162.076 112.697 162.137 112.216 162.134C111.736 162.131 110.963 162.097 109.898 162.032Z" fill="#6A67CE"/>
</svg>
